<?xml version="1.0" standalone="no"?>
<!DOCTYPE svg PUBLIC "-//W3C//DTD SVG 20010904//EN"
 "http://www.w3.org/TR/2001/REC-SVG-20010904/DTD/svg10.dtd">
<svg version="1.0" xmlns="http://www.w3.org/2000/svg"
 width="225.000000pt" height="225.000000pt" viewBox="0 0 225.000000 225.000000"
 preserveAspectRatio="xMidYMid meet">

<g transform="translate(0.000000,225.000000) scale(0.100000,-0.100000)"
fill="#000000" stroke="none">
<path d="M229 2240 c-88 -15 -164 -74 -203 -159 -21 -46 -21 -50 -21 -956 0
-906 0 -910 21 -956 27 -58 85 -116 143 -143 46 -21 50 -21 956 -21 906 0 910
0 956 21 58 27 116 85 143 143 21 46 21 50 21 956 0 906 0 910 -21 956 -27 58
-85 116 -143 143 -46 21 -52 21 -926 23 -484 0 -901 -3 -926 -7z m897 -404 c1
-13 24 -51 51 -83 l49 -59 17 23 c23 30 35 29 30 -2 -3 -13 0 -47 7 -75 19
-80 6 -136 -44 -186 -32 -33 -52 -44 -88 -49 -60 -9 -101 1 -139 32 -59 50
-73 112 -44 207 8 27 12 59 9 72 -8 31 9 31 34 -1 25 -31 37 -19 53 53 11 47
39 92 57 92 4 0 8 -11 8 -24z m154 -910 l0 -405 48 -6 c73 -10 72 -9 72 -70
l0 -55 -245 0 -245 0 0 55 c0 60 -5 56 83 70 l37 6 0 303 0 303 -52 14 -53 14
0 65 0 65 155 21 c85 12 165 22 178 23 l22 1 0 -404z"/>
</g>
</svg>
